<?xml version="1.0" encoding="utf-8"?>
<!-- Generator: Adobe Illustrator 24.0.3, SVG Export Plug-In . SVG Version: 6.00 Build 0)  -->
<svg version="1.1" id="Layer_1" xmlns="http://www.w3.org/2000/svg" xmlns:xlink="http://www.w3.org/1999/xlink" x="0px" y="0px"
	 viewBox="0 0 612 170" style="enable-background:new 0 0 612 170;" xml:space="preserve">
<style type="text/css">
	.st0{fill:#3D9CD7;}
	.st1{fill:#DC8B28;}
	.st2{fill:#5ABA47;}
	.st3{fill:#FFFFFF;}
</style>
<g>
	<g>
		<g>
			<path class="st0" d="M116.6,31.3c-3,0.1-8.1-2.8-12.8-7.3c-5.5-5.2-9.8-12-7.2-14.7c0.5-0.5,1.2-0.8,2.2-0.9
				c3-0.1,8.1,2.8,12.8,7.3c5.5,5.2,9.8,12,7.2,14.7C118.2,30.9,117.5,31.2,116.6,31.3z M98.8,10.4c-0.4,0-0.7,0.1-0.8,0.3
				c-1,1.1,1.2,6.3,7.1,11.9c6,5.7,11.3,7.5,12.3,6.5c1-1.1-1.2-6.3-7.1-11.9C105.2,12.4,100.8,10.3,98.8,10.4z"/>
		</g>
		<g>
			<path class="st1" d="M101.5,40.3c-2.1,0.1-5.7-1.9-9-5.1c-3.8-3.6-6.9-8.4-5-10.5c0.3-0.3,0.8-0.7,1.7-0.7c2.1-0.1,5.7,1.9,9,5.1
				c2,1.9,3.6,3.9,4.6,5.7c1.5,2.7,1,4.1,0.4,4.8C102.9,39.9,102.4,40.3,101.5,40.3z M89.3,25.9c-0.2,0-0.3,0-0.4,0.1
				c-0.4,0.5,0.7,3.8,4.9,7.8c3.2,3.1,6.3,4.6,7.6,4.6c0.2,0,0.3-0.1,0.4-0.1c0.1-0.1,0.2-0.8-0.7-2.5c-0.9-1.6-2.4-3.5-4.2-5.2
				C93.7,27.4,90.6,25.9,89.3,25.9z"/>
		</g>
		<g>
			<path class="st2" d="M88.8,47c-1.6,0.1-3.8-1.5-5.3-2.9c-2.3-2.2-4-5-2.7-6.4c0.2-0.2,0.6-0.5,1.2-0.5c1.6-0.1,3.8,1.5,5.3,2.9
				c2.3,2.2,4,5,2.7,6.4C89.8,46.7,89.4,47,88.8,47z M82.3,39.2c0.2,0.6,0.9,2,2.6,3.5c1.6,1.5,3,2.2,3.7,2.4
				c-0.2-0.6-0.9-2-2.6-3.5C84.3,40,82.9,39.3,82.3,39.2z"/>
		</g>
		<g>
			<path class="st1" d="M116.1,119v12.4c0,0.2-0.1,0.3-0.3,0.3H114c-0.1,0-0.3-0.1-0.3-0.2l-4.9-9.4c-0.1-0.1-0.1-0.2-0.2-0.2
				c-0.1,0-0.1,0.1-0.1,0.2v9.3c0,0.2-0.1,0.3-0.3,0.3H107c-0.2,0-0.3-0.1-0.3-0.3V119c0-0.2,0.1-0.3,0.3-0.3h1.9
				c0.1,0,0.3,0.1,0.3,0.2l4.9,9.5c0,0.1,0.1,0.1,0.1,0.1c0.1,0,0.1-0.1,0.1-0.2V119c0-0.2,0.1-0.3,0.3-0.3h1.3
				C116.1,118.7,116.1,118.8,116.1,119z"/>
			<path class="st1" d="M135.1,129.8c0.2,0,0.3,0.1,0.3,0.3v1.3c0,0.2-0.1,0.3-0.3,0.3h-5.5c-0.4,0-0.7-0.1-1.1-0.2
				c-0.3-0.1-0.6-0.3-0.9-0.6c-0.3-0.2-0.4-0.5-0.6-0.9c-0.1-0.3-0.2-0.7-0.2-1.1v-7.4c0-0.4,0.1-0.7,0.2-1.1
				c0.1-0.3,0.3-0.6,0.6-0.9c0.3-0.2,0.5-0.4,0.9-0.6c0.3-0.2,0.7-0.2,1.1-0.2h5.5c0.2,0,0.3,0.1,0.3,0.3v1.3c0,0.2-0.1,0.3-0.3,0.3
				h-5.5c-0.3,0-0.5,0.1-0.6,0.3c-0.2,0.2-0.3,0.4-0.3,0.6v2.5c0,0.2,0.1,0.3,0.3,0.3h6.1c0.2,0,0.3,0.1,0.3,0.3v1.3
				c0,0.2-0.1,0.3-0.3,0.3H129c-0.2,0-0.3,0.1-0.3,0.3v2.5c0,0.3,0.1,0.5,0.3,0.6c0.2,0.2,0.4,0.3,0.6,0.3H135.1z"/>
			<path class="st1" d="M154,120.6h-3.2c-0.2,0-0.3,0.1-0.3,0.3v10.6c0,0.2-0.1,0.3-0.3,0.3h-1.3c-0.2,0-0.3-0.1-0.3-0.3v-10.6
				c0-0.2-0.1-0.3-0.3-0.3h-3.2c-0.2,0-0.3-0.1-0.3-0.3V119c0-0.2,0.1-0.3,0.3-0.3h8.9c0.2,0,0.3,0.1,0.3,0.3v1.3
				C154.3,120.5,154.2,120.6,154,120.6z"/>
			<path class="st1" d="M177.1,119v9.9c0,0.4-0.1,0.7-0.2,1.1c-0.1,0.3-0.3,0.6-0.6,0.9c-0.2,0.3-0.5,0.5-0.9,0.6
				c-0.3,0.1-0.7,0.2-1.1,0.2h-1.9c-0.4,0-0.7-0.1-1-0.2c-0.3-0.1-0.6-0.3-0.8-0.5c-0.2,0.2-0.5,0.4-0.8,0.5c-0.3,0.1-0.7,0.2-1,0.2
				h-1.9c-0.4,0-0.7-0.1-1.1-0.2c-0.3-0.1-0.6-0.3-0.9-0.6c-0.2-0.3-0.4-0.5-0.6-0.9c-0.1-0.3-0.2-0.7-0.2-1.1V119
				c0-0.2,0.1-0.3,0.3-0.3h1.3c0.2,0,0.3,0.1,0.3,0.3v9.9c0,0.2,0.1,0.5,0.3,0.6c0.2,0.2,0.4,0.3,0.7,0.3h1.9c0.3,0,0.5-0.1,0.7-0.3
				c0.2-0.2,0.3-0.4,0.3-0.6V119c0-0.2,0.1-0.3,0.3-0.3h1.3c0.2,0,0.3,0.1,0.3,0.3v9.9c0,0.2,0.1,0.5,0.3,0.6
				c0.2,0.2,0.4,0.3,0.7,0.3h1.9c0.3,0,0.5-0.1,0.7-0.3c0.2-0.2,0.3-0.4,0.3-0.6V119c0-0.2,0.1-0.3,0.3-0.3h1.3
				C177,118.7,177.1,118.8,177.1,119z"/>
			<path class="st1" d="M196.9,118.7c0.2,0,0.3,0.1,0.3,0.3v9.9c0,0.4-0.1,0.7-0.2,1.1c-0.1,0.3-0.3,0.6-0.6,0.9
				c-0.2,0.2-0.5,0.5-0.9,0.6c-0.3,0.1-0.7,0.2-1.1,0.2h-3.9c-0.4,0-0.7-0.1-1.1-0.2c-0.3-0.1-0.6-0.3-0.9-0.6
				c-0.2-0.2-0.4-0.5-0.6-0.9c-0.1-0.3-0.2-0.7-0.2-1.1v-7.4c0-0.4,0.1-0.7,0.2-1.1c0.1-0.3,0.3-0.6,0.6-0.9
				c0.2-0.2,0.5-0.4,0.9-0.6c0.3-0.2,0.7-0.2,1.1-0.2H196.9z M190.5,120.6c-0.3,0-0.5,0.1-0.7,0.3c-0.2,0.2-0.3,0.4-0.3,0.7v7.4
				c0,0.3,0.1,0.5,0.3,0.7c0.2,0.2,0.4,0.3,0.7,0.3h3.9c0.3,0,0.5-0.1,0.7-0.3c0.2-0.2,0.3-0.4,0.3-0.7v-8.1c0-0.2-0.1-0.3-0.3-0.3
				H190.5z"/>
			<path class="st1" d="M214.6,118.7c0.4,0,0.7,0.1,1.1,0.2c0.3,0.1,0.6,0.3,0.9,0.6c0.2,0.3,0.4,0.5,0.6,0.9
				c0.2,0.3,0.2,0.7,0.2,1.1v2.1c0,0.3-0.1,0.7-0.2,1c-0.1,0.3-0.3,0.6-0.5,0.8c-0.2,0.2-0.4,0.5-0.7,0.6c-0.3,0.2-0.6,0.3-0.9,0.3
				l3.4,5.1c0,0,0,0.1,0,0.1c0,0.1,0,0.1-0.1,0.1c-0.1,0-0.1,0-0.2,0h-1.6c-0.1,0-0.1,0-0.2-0.1c0-0.1-0.1-0.1-0.1-0.2l-2.7-4.1
				c-0.1-0.2-0.3-0.4-0.5-0.6c-0.2-0.2-0.4-0.3-0.7-0.3h-2.4c-0.2,0-0.3,0.1-0.3,0.3v4.7c0,0.2-0.1,0.3-0.3,0.3h-1.3
				c-0.2,0-0.3-0.1-0.3-0.3v-9.9c0-0.4,0.1-0.7,0.2-1.1c0.1-0.3,0.3-0.6,0.6-0.9c0.2-0.2,0.5-0.4,0.9-0.6c0.3-0.2,0.7-0.2,1.1-0.2
				H214.6z M215.5,121.5c0-0.3-0.1-0.5-0.3-0.7c-0.2-0.2-0.4-0.3-0.7-0.3h-3.9c-0.3,0-0.5,0.1-0.7,0.3c-0.2,0.2-0.3,0.4-0.3,0.7v2.8
				c0,0.2,0.1,0.3,0.3,0.3h4.5c0.3,0,0.5-0.1,0.7-0.3c0.2-0.2,0.3-0.4,0.3-0.7V121.5z"/>
			<path class="st1" d="M237.8,131.5c0,0.1,0,0.1-0.1,0.1c-0.1,0-0.1,0-0.2,0H236c-0.1,0-0.1,0-0.2-0.1c0-0.1-0.1-0.1-0.1-0.2
				l-2.9-4.6c-0.2-0.2-0.3-0.4-0.5-0.6c-0.2-0.2-0.5-0.3-0.8-0.3h-1.3c-0.2,0-0.3,0.1-0.3,0.3v5.3c0,0.2-0.1,0.3-0.3,0.3h-1.3
				c-0.2,0-0.3-0.1-0.3-0.3V119c0-0.2,0.1-0.3,0.3-0.3h1.3c0.2,0,0.3,0.1,0.3,0.3v4.7c0,0.2,0.1,0.3,0.3,0.3h1.3
				c0.3,0,0.6-0.1,0.8-0.3c0.2-0.2,0.4-0.4,0.5-0.7l2.6-4.1c0.1-0.1,0.1-0.2,0.1-0.2c0,0,0.1-0.1,0.2-0.1h1.6c0.1,0,0.1,0,0.2,0
				c0.1,0,0.1,0.1,0.1,0.1c0,0,0,0.1,0,0.1l-2.6,4.1c-0.2,0.3-0.5,0.7-0.7,1c-0.2,0.3-0.4,0.6-0.7,0.9c0.2,0.2,0.5,0.5,0.7,0.9
				c0.2,0.3,0.4,0.7,0.7,1L237.8,131.5C237.8,131.4,237.8,131.5,237.8,131.5z"/>
			<path class="st1" d="M256.5,128.9L256.5,128.9c0,0.4-0.1,0.7-0.2,1.1c-0.1,0.3-0.3,0.6-0.6,0.9c-0.2,0.3-0.5,0.5-0.9,0.6
				c-0.3,0.1-0.7,0.2-1.1,0.2h-6c-0.2,0-0.3-0.1-0.3-0.3v-1.3c0-0.2,0.1-0.3,0.3-0.3h6c0.2,0,0.5-0.1,0.6-0.3
				c0.2-0.2,0.3-0.4,0.3-0.7h0v-1.8c0-0.3-0.1-0.5-0.3-0.7c-0.2-0.2-0.4-0.3-0.6-0.3h-4.2c-0.4,0-0.7-0.1-1-0.2
				c-0.3-0.2-0.6-0.4-0.8-0.6c-0.2-0.3-0.4-0.6-0.5-0.9c-0.1-0.3-0.2-0.7-0.2-1v-1.8c0-0.4,0.1-0.7,0.2-1.1c0.1-0.3,0.3-0.6,0.6-0.9
				c0.3-0.2,0.5-0.4,0.9-0.6c0.3-0.2,0.7-0.2,1.1-0.2h5.8c0.2,0,0.3,0.1,0.3,0.3v1.3c0,0.2-0.1,0.3-0.3,0.3h-5.8
				c-0.3,0-0.5,0.1-0.6,0.3c-0.2,0.2-0.3,0.4-0.3,0.7v1.8c0,0.3,0.1,0.5,0.3,0.7c0.2,0.2,0.4,0.3,0.6,0.3h4.1c0.3,0,0.7,0.1,1,0.3
				c0.3,0.2,0.6,0.4,0.8,0.6c0.2,0.3,0.4,0.6,0.6,0.9c0.1,0.3,0.2,0.7,0.2,1V128.9z"/>
		</g>
		<g>
			<polygon class="st3" points="190.8,82.6 217.8,82.6 217.9,82.7 217.9,89.9 217.8,90.1 190.8,90.1 190.6,89.9 190.6,82.7 			"/>
			<g>
				<path class="st3" d="M32.4,67.9H63c1.9,0,3.6,1,5,2.9c0.9,1.4,1.3,2.9,1.3,4.2v0.2l-0.2,0.2H36v10.1h26.2c3.4,0,5.7,1.8,6.8,5.3
					l0.2,1.9v9.8c0,2.6-1.1,4.6-3.3,6.2c-0.9,0.5-1.9,0.8-3,1l-0.1,0.1H32.5c-0.2-0.1-0.7-0.2-1.7-0.4c-1.6-0.6-2.8-1.6-3.7-3.1
					c-0.7-1.4-1-2.6-1-3.4l0.1-0.1h33.2v-9.6H33.1c-3.4,0-5.7-1.8-6.8-5.3L26.1,86V75c0-2.6,1.1-4.7,3.4-6.3
					C30.6,68.2,31.6,67.9,32.4,67.9z"/>
				<path class="st3" d="M119.1,75h12.7c0.5,0.5,4.3,5.2,11.3,14l0.1,0.1h0.1c7.2-9.1,11-13.8,11.4-14.1h12.7l0.1,0.1h0.1
					l-18.9,22.7v11.9l-0.2,0.2h-10.7l-0.1-0.2V97.8L119,75H119.1z"/>
				<path class="st3" d="M178.1,67.6h50.4l0.2,0.2l-8.1,7.2l-0.2,0.1h-32.6v34.4l-0.2,0.2h-9.4l-0.2-0.2V67.7L178.1,67.6z"/>
				<path class="st3" d="M225,75.1h36.3c3.3,0,5.4,1.7,6.6,5.2c0.2,0.6,0.3,1.3,0.3,2v6.8c0,2.5-1,4.5-3.1,6.1
					c-1.2,0.7-2.4,1.1-3.7,1.1h-5.3l13.4,13.6v0.1h-13.2l-20.6-20.5v-0.1h22.6v-6.5h-23.4v0.1l-0.1,27l-0.1,0.1H225l-0.2-0.2V75.3
					L225,75.1z"/>
				<path class="st3" d="M273.2,75.6h42.1l0.2,0.2v7.1l-0.2,0.2h-32.6v19h32.6l0.2,0.2v7.1l-0.2,0.2h-42.1l-0.2-0.2V75.8L273.2,75.6
					z M285.8,89.3h27l0.1,0.1v7.2l-0.1,0.2h-27l-0.2-0.2v-7.2L285.8,89.3z"/>
				<path class="st3" d="M365.9,75.5h9.5l0.2,0.2v27.3h23.2V75.6l0.2-0.2h9.5l0.2,0.2v27.1c0,2.6-1.1,4.7-3.4,6.3
					c-1.1,0.6-2.3,0.9-3.6,0.9h-28.9c-3.4,0-5.7-1.8-6.8-5.3l-0.2-1.9V75.6L365.9,75.5z"/>
				<path class="st3" d="M413.1,75.6h42.1l0.2,0.2v7.1l-0.2,0.2h-32.6v19h32.6l0.2,0.2v7.1l-0.2,0.2h-42.1l-0.2-0.2V75.8L413.1,75.6
					z M425.6,89.3h27l0.1,0.1v7.2l-0.1,0.2h-27l-0.2-0.2v-7.2L425.6,89.3z"/>
				<path class="st3" d="M459.3,76h14.9l18.1,25.3V76.2l0.1-0.2h8.5l0.2,0.2v33.5l-0.2,0.2h-14.9c-0.3-0.3-6.3-8.7-18-25.2l-0.1-0.1
					v-0.1h-0.1v25.2l-0.2,0.2h-8.4l-0.2-0.2V76.2L459.3,76z"/>
				<g>
					<g>
						<path class="st3" d="M514.3,102.7V82.9h30.5l-4.6-5.4l-1.7-2.1h-26.9c-1.4,0-2.6,0.3-3.7,1c-2.2,1.5-3.3,3.6-3.3,6.1v20
							l0.2,1.9c1.1,3.5,3.3,5.3,6.7,5.3h28.8c1.8,0,3.3-0.5,4.6-1.6c1.6-1.7,2.3-3.4,2.3-5.1l-0.2-0.2H514.3z"/>
					</g>
				</g>
				<g>
					<path class="st3" d="M80.9,75V63.2h-1.8V52c0.7-0.4,1.1-1.1,1.1-2c0-1.3-1.1-2.4-2.4-2.4c-1.3,0-2.4,1.1-2.4,2.4
						c0,0.9,0.5,1.6,1.1,2v11.3h-1.8V75h-1.5H73v34.7l0.2,0.2h9.5l0.2-0.2V75h-0.2H80.9z"/>
					<path class="st3" d="M97.7,90c8.3-6,14.8-11.4,19.5-15h-14.5l-19,14.3v0.2l20.4,20.3h13.1v-0.1L97.7,90L97.7,90z"/>
				</g>
				<g>
					<path class="st3" d="M572.4,109.6V97.8l18.9-22.4h-0.1h-0.1h-12.7c-0.4,0.3-4.2,4.6-11.4,13.7h-0.1l-0.1-0.1
						c-7-8.8-10.8-13.1-11.3-13.6h-12.7h-0.2l18.8,22.4v11.8H572.4z"/>
				</g>
				<path class="st3" d="M319.3,82.7v19.8l0.2,1.9c1.1,3.5,3.3,5.2,6.7,5.2h17.5l2.3,2.2c0.1,0.3,17.9,18.1,19.8,19.9h9.5h0.1
					l-21.9-22.1h1.3c1.3,0,2.5-0.3,3.5-0.9c2.3-1.5,3.4-3.6,3.4-6.2V82.7c0-0.7-0.1-1.4-0.4-2.3c-1.1-3.2-3.3-4.8-6.6-4.8h-28.4
					c-1.4,0-2.6,0.3-3.7,1C320.4,78.1,319.3,80.1,319.3,82.7z M329,83.1h23v19.7h-5.4l-3.7-3.6h-9.5v0.2l3.4,3.4H329V83.1z"/>
			</g>
		</g>
		<g>
			<polygon class="st3" points="572.4,123.4 572.4,118.7 377,118.7 381.6,123.4 			"/>
			<polygon class="st3" points="385.1,127 389.8,131.7 572.4,131.7 572.4,127 			"/>
		</g>
	</g>
	<g>
		<path class="st3" d="M73.4,144.5H69v-1.6h10.7v1.6h-4.4v12.8h-1.9V144.5z"/>
		<path class="st3" d="M90.5,150.6h-5.6v5.2h6.3v1.6H83v-14.4h7.8v1.6h-5.9v4.6h5.6V150.6z"/>
		<path class="st3" d="M95.3,142.9h1.9v12.9h6.2v1.6h-8V142.9z"/>
		<path class="st3" d="M114.6,150.6H109v5.2h6.3v1.6h-8.1v-14.4h7.8v1.6H109v4.6h5.6V150.6z"/>
		<path class="st3" d="M119.3,143.1c0.9-0.1,2.1-0.3,3.6-0.3c1.8,0,3.2,0.4,4,1.2c0.8,0.7,1.3,1.7,1.3,3c0,1.3-0.4,2.3-1.1,3.1
			c-1,1-2.6,1.6-4.4,1.6c-0.6,0-1.1,0-1.5-0.1v5.8h-1.9V143.1z M121.2,150.1c0.4,0.1,0.9,0.1,1.5,0.1c2.2,0,3.6-1.1,3.6-3.1
			c0-1.9-1.3-2.8-3.4-2.8c-0.8,0-1.4,0.1-1.8,0.1V150.1z"/>
		<path class="st3" d="M134.3,142.9v6h7v-6h1.9v14.4h-1.9v-6.8h-7v6.8h-1.9v-14.4H134.3z"/>
		<path class="st3" d="M160.4,150c0,5-3,7.6-6.7,7.6c-3.8,0-6.5-3-6.5-7.3c0-4.6,2.8-7.6,6.7-7.6C157.9,142.7,160.4,145.7,160.4,150
			z M149.2,150.2c0,3.1,1.7,5.8,4.6,5.8c3,0,4.6-2.7,4.6-6c0-2.9-1.5-5.9-4.6-5.9C150.8,144.2,149.2,147.1,149.2,150.2z"/>
		<path class="st3" d="M164.6,157.4v-14.4h2l4.6,7.3c1.1,1.7,1.9,3.2,2.6,4.7l0,0c-0.2-1.9-0.2-3.7-0.2-5.9v-6h1.8v14.4h-1.9
			l-4.6-7.3c-1-1.6-2-3.3-2.7-4.8l-0.1,0c0.1,1.8,0.1,3.6,0.1,6v6.2H164.6z"/>
		<path class="st3" d="M187.8,150.6h-5.6v5.2h6.3v1.6h-8.1v-14.4h7.8v1.6h-5.9v4.6h5.6V150.6z"/>
		<path class="st3" d="M198.4,156.2c0-0.8,0.5-1.3,1.3-1.3c0.7,0,1.3,0.6,1.3,1.3c0,0.8-0.5,1.3-1.3,1.3
			C198.9,157.6,198.4,157,198.4,156.2z"/>
		<path class="st3" d="M213.1,142.9v14.4h-1.9v-14.4H213.1z"/>
		<path class="st3" d="M218.1,157.4v-14.4h2l4.6,7.3c1.1,1.7,1.9,3.2,2.6,4.7l0,0c-0.2-1.9-0.2-3.7-0.2-5.9v-6h1.8v14.4H227
			l-4.6-7.3c-1-1.6-2-3.3-2.7-4.8l-0.1,0c0.1,1.8,0.1,3.6,0.1,6v6.2H218.1z"/>
		<path class="st3" d="M236.6,144.5h-4.4v-1.6h10.7v1.6h-4.4v12.8h-1.9V144.5z"/>
		<path class="st3" d="M253.7,150.6h-5.6v5.2h6.3v1.6h-8.1v-14.4h7.8v1.6h-5.9v4.6h5.6V150.6z"/>
		<path class="st3" d="M258.5,143.1c0.9-0.2,2.3-0.3,3.6-0.3c2,0,3.3,0.4,4.2,1.2c0.7,0.6,1.1,1.6,1.1,2.7c0,1.9-1.2,3.2-2.7,3.7
			v0.1c1.1,0.4,1.8,1.4,2.1,2.9c0.5,2,0.8,3.4,1.1,4H266c-0.2-0.4-0.6-1.6-1-3.4c-0.4-2-1.2-2.7-2.9-2.8h-1.8v6.3h-1.9V143.1z
			 M260.3,149.7h1.9c2,0,3.3-1.1,3.3-2.7c0-1.9-1.3-2.7-3.3-2.7c-0.9,0-1.5,0.1-1.8,0.2V149.7z"/>
		<path class="st3" d="M271.7,157.4v-14.4h2l4.6,7.3c1.1,1.7,1.9,3.2,2.6,4.7l0,0c-0.2-1.9-0.2-3.7-0.2-5.9v-6h1.8v14.4h-1.9
			l-4.6-7.3c-1-1.6-2-3.3-2.7-4.8l-0.1,0c0.1,1.8,0.1,3.6,0.1,6v6.2H271.7z"/>
		<path class="st3" d="M295,150.6h-5.6v5.2h6.3v1.6h-8.1v-14.4h7.8v1.6h-5.9v4.6h5.6V150.6z"/>
		<path class="st3" d="M302.8,144.5h-4.4v-1.6h10.7v1.6h-4.4v12.8h-1.9V144.5z"/>
		<path class="st3" d="M318.2,156.2c0-0.8,0.5-1.3,1.3-1.3c0.8,0,1.3,0.6,1.3,1.3c0,0.8-0.5,1.3-1.3,1.3
			C318.7,157.6,318.2,157,318.2,156.2z"/>
		<path class="st3" d="M341.2,156.9c-0.7,0.3-2.1,0.7-3.8,0.7c-4.1,0-7.1-2.6-7.1-7.3c0-4.5,3.1-7.6,7.5-7.6c1.8,0,2.9,0.4,3.4,0.6
			l-0.4,1.5c-0.7-0.3-1.7-0.6-2.9-0.6c-3.4,0-5.6,2.2-5.6,6c0,3.5,2,5.8,5.5,5.8c1.1,0,2.3-0.2,3-0.6L341.2,156.9z"/>
		<path class="st3" d="M357.1,150c0,5-3,7.6-6.7,7.6c-3.8,0-6.5-3-6.5-7.3c0-4.6,2.8-7.6,6.7-7.6C354.6,142.7,357.1,145.7,357.1,150
			z M345.9,150.2c0,3.1,1.7,5.8,4.6,5.8c3,0,4.6-2.7,4.6-6c0-2.9-1.5-5.9-4.6-5.9C347.4,144.2,345.9,147.1,345.9,150.2z"/>
		<path class="st3" d="M373.4,151c-0.1-2-0.2-4.4-0.2-6.2h-0.1c-0.5,1.7-1.1,3.5-1.8,5.5l-2.5,7h-1.4l-2.3-6.9
			c-0.7-2-1.3-3.9-1.7-5.6h0c0,1.8-0.2,4.2-0.3,6.4l-0.4,6.2h-1.8l1-14.4h2.4l2.5,7c0.6,1.8,1.1,3.4,1.5,4.9h0.1
			c0.4-1.5,0.9-3,1.5-4.9l2.6-7h2.4l0.9,14.4h-1.8L373.4,151z"/>
		<path class="st3" d="M380.2,143.1c0.9-0.1,2.1-0.3,3.6-0.3c1.8,0,3.2,0.4,4,1.2c0.8,0.7,1.3,1.7,1.3,3c0,1.3-0.4,2.3-1.1,3.1
			c-1,1-2.6,1.6-4.4,1.6c-0.6,0-1.1,0-1.5-0.1v5.8h-1.9V143.1z M382,150.1c0.4,0.1,0.9,0.1,1.5,0.1c2.2,0,3.6-1.1,3.6-3.1
			c0-1.9-1.3-2.8-3.4-2.8c-0.8,0-1.4,0.1-1.8,0.1V150.1z"/>
		<path class="st3" d="M395.1,142.9v8.5c0,3.2,1.4,4.6,3.4,4.6c2.1,0,3.5-1.4,3.5-4.6v-8.5h1.9v8.4c0,4.4-2.3,6.3-5.5,6.3
			c-3,0-5.2-1.7-5.2-6.2v-8.5H395.1z"/>
		<path class="st3" d="M411.6,144.5h-4.4v-1.6h10.7v1.6h-4.4v12.8h-1.9V144.5z"/>
		<path class="st3" d="M428.6,150.6H423v5.2h6.3v1.6h-8.1v-14.4h7.8v1.6H423v4.6h5.6V150.6z"/>
		<path class="st3" d="M433.4,143.1c0.9-0.2,2.3-0.3,3.6-0.3c2,0,3.3,0.4,4.2,1.2c0.7,0.6,1.1,1.6,1.1,2.7c0,1.9-1.2,3.2-2.7,3.7
			v0.1c1.1,0.4,1.8,1.4,2.1,2.9c0.5,2,0.8,3.4,1.1,4h-1.9c-0.2-0.4-0.6-1.6-1-3.4c-0.4-2-1.2-2.7-2.9-2.8h-1.8v6.3h-1.9V143.1z
			 M435.3,149.7h1.9c2,0,3.3-1.1,3.3-2.7c0-1.9-1.3-2.7-3.3-2.7c-0.9,0-1.5,0.1-1.8,0.2V149.7z"/>
		<path class="st3" d="M452.6,155.1c0.8,0.5,2.1,0.9,3.3,0.9c1.9,0,3-1,3-2.5c0-1.3-0.8-2.1-2.7-2.9c-2.4-0.8-3.8-2.1-3.8-4.1
			c0-2.2,1.9-3.9,4.7-3.9c1.5,0,2.5,0.3,3.2,0.7l-0.5,1.5c-0.5-0.3-1.4-0.7-2.7-0.7c-2,0-2.7,1.2-2.7,2.2c0,1.3,0.9,2,2.9,2.8
			c2.4,0.9,3.7,2.1,3.7,4.2c0,2.2-1.6,4.2-5.1,4.2c-1.4,0-2.9-0.4-3.7-0.9L452.6,155.1z"/>
		<path class="st3" d="M472.6,150.6H467v5.2h6.3v1.6h-8.1v-14.4h7.8v1.6H467v4.6h5.6V150.6z"/>
		<path class="st3" d="M477.4,143.1c0.9-0.2,2.3-0.3,3.6-0.3c2,0,3.3,0.4,4.2,1.2c0.7,0.6,1.1,1.6,1.1,2.7c0,1.9-1.2,3.2-2.7,3.7
			v0.1c1.1,0.4,1.8,1.4,2.1,2.9c0.5,2,0.8,3.4,1.1,4h-1.9c-0.2-0.4-0.6-1.6-1-3.4c-0.4-2-1.2-2.7-2.9-2.8h-1.8v6.3h-1.9V143.1z
			 M479.3,149.7h1.9c2,0,3.3-1.1,3.3-2.7c0-1.9-1.3-2.7-3.3-2.7c-0.9,0-1.5,0.1-1.8,0.2V149.7z"/>
		<path class="st3" d="M494.1,157.4l-4.7-14.4h2l2.2,7.1c0.6,1.9,1.2,3.7,1.5,5.4h0c0.4-1.7,1-3.5,1.6-5.4l2.4-7.1h2l-5.2,14.4
			H494.1z"/>
		<path class="st3" d="M506.5,142.9v14.4h-1.9v-14.4H506.5z"/>
		<path class="st3" d="M521.5,156.9c-0.7,0.3-2.1,0.7-3.8,0.7c-4.1,0-7.1-2.6-7.1-7.3c0-4.5,3.1-7.6,7.5-7.6c1.8,0,2.9,0.4,3.4,0.6
			l-0.4,1.5c-0.7-0.3-1.7-0.6-2.9-0.6c-3.4,0-5.6,2.2-5.6,6c0,3.5,2,5.8,5.5,5.8c1.1,0,2.3-0.2,3-0.6L521.5,156.9z"/>
		<path class="st3" d="M533.1,150.6h-5.6v5.2h6.3v1.6h-8.1v-14.4h7.8v1.6h-5.9v4.6h5.6V150.6z"/>
		<path class="st3" d="M537.6,155.1c0.8,0.5,2.1,0.9,3.3,0.9c1.9,0,3-1,3-2.5c0-1.3-0.8-2.1-2.7-2.9c-2.4-0.8-3.8-2.1-3.8-4.1
			c0-2.2,1.9-3.9,4.7-3.9c1.5,0,2.5,0.3,3.2,0.7l-0.5,1.5c-0.5-0.3-1.4-0.7-2.7-0.7c-2,0-2.7,1.2-2.7,2.2c0,1.3,0.9,2,2.9,2.8
			c2.4,0.9,3.7,2.1,3.7,4.2c0,2.2-1.6,4.2-5.1,4.2c-1.4,0-2.9-0.4-3.7-0.9L537.6,155.1z"/>
	</g>
</g>
<g>
	<polygon class="st3" points="266.3,127 266.3,131.7 353.7,131.7 349.1,127 	"/>
	<polygon class="st3" points="345.6,123.4 341,118.7 266.3,118.7 266.3,123.4 	"/>
	<rect x="25.4" y="127" class="st3" width="73.1" height="4.7"/>
	<rect x="25.4" y="118.7" class="st3" width="73.1" height="4.7"/>
</g>
</svg>
